<?xml version="1.0" encoding="utf-8"?>
<!-- Generator: Adobe Illustrator 19.0.0, SVG Export Plug-In . SVG Version: 6.00 Build 0)  -->
<svg version="1.1" id="Layer_1" xmlns="http://www.w3.org/2000/svg" xmlns:xlink="http://www.w3.org/1999/xlink" x="0px" y="0px"
	 viewBox="-547 329.5 322 54" style="enable-background:new -547 329.5 322 54;" xml:space="preserve">
<style type="text/css">
	.st0{fill:#2A2A2D;}
	.st1{fill:#FF4B00;}
</style>
<g>
	<g>
		<path class="st0" d="M-499.5,362.7c-1.6-1.7-3.4-2.2-6.3-2.7c-6.2-1.1-9.9-5.5-12.1-7.8c-2.7-2.9-6.9-6.9-7.1-12
			c-0.2-4.1-0.9-5.8-2.2-7.2c-3.1-3.3-8.2-3.5-11.5-0.4s-3.5,8.2-0.4,11.5c1.5,1.6,3.1,2.2,7.2,2.6c4.3,0.5,9.2,5.4,11.6,7.9
			c2.4,2.6,6.2,7.7,6.8,12.9c0.3,3,0.7,4.7,2.2,6.3c3.1,3.3,8.2,3.5,11.5,0.4C-496.6,371.1-496.4,366-499.5,362.7"/>
	</g>
</g>
<g>
	<path class="st1" d="M-500.2,333.1c-3.1-3.1-8-3.1-11.1,0s-3.1,8,0,11.1s8,3.1,11.1,0C-497.1,341.2-497.1,336.2-500.2,333.1"/>
</g>
<g>
	<g>
		<path class="st1" d="M-528,362.7c-3.1-3.1-8-3.1-11.1,0c-3.1,3.1-3.1,8,0,11.1c3.1,3.1,8,3.1,11.1,0
			C-525,370.7-525,365.7-528,362.7"/>
	</g>
</g>
<g>
	<path class="st0" d="M-478.1,332.4h8.2c0.9,0,1.6,0.2,2.2,0.6s1,0.9,1.2,1.6l8.5,23.4c0.4,1,0.8,2.1,1.2,3.3
		c0.4,1.2,0.8,2.5,1.1,3.8c0.3-1.3,0.6-2.6,1-3.8c0.4-1.2,0.7-2.3,1.1-3.3l8.4-23.4c0.2-0.6,0.6-1.1,1.2-1.5
		c0.6-0.5,1.3-0.7,2.1-0.7h8.2l-17.5,43.7h-9.2L-478.1,332.4z"/>
</g>
<g>
	<rect x="-417.4" y="332.4" class="st0" width="10.2" height="43.7"/>
</g>
<g>
	<path class="st0" d="M-355.1,332.4v3.7c0,0.5-0.1,1-0.3,1.5c-0.2,0.5-0.4,1-0.7,1.4l-20.5,29.3h20.8v7.8h-33.7v-3.9
		c0-0.5,0.1-0.9,0.2-1.4c0.2-0.4,0.4-0.9,0.7-1.2l20.6-29.4h-19.8v-7.8H-355.1z"/>
</g>
<g>
	<path class="st0" d="M-328.3,359.9v16.2h-10.1v-43.7h14.2c3.2,0,5.9,0.3,8.1,1c2.2,0.6,4,1.6,5.5,2.7c1.4,1.2,2.4,2.5,3.1,4.1
		c0.6,1.6,1,3.3,1,5.2c0,1.4-0.2,2.8-0.6,4c-0.4,1.3-0.9,2.4-1.7,3.5s-1.7,2-2.8,2.9c-1.1,0.8-2.3,1.5-3.8,2.1
		c0.7,0.3,1.3,0.8,1.9,1.3s1.1,1.1,1.5,1.8l9.3,15.2h-9.2c-1.7,0-2.9-0.6-3.7-1.9l-7.3-12.7c-0.3-0.6-0.7-1-1.1-1.2s-1-0.4-1.8-0.4
		h-2.5V359.9z M-328.3,352.9h4.1c1.4,0,2.6-0.2,3.5-0.5c1-0.4,1.8-0.8,2.4-1.5c0.6-0.6,1.1-1.3,1.3-2.2c0.3-0.8,0.4-1.7,0.4-2.7
		c0-1.9-0.6-3.4-1.9-4.5c-1.3-1.1-3.2-1.6-5.8-1.6h-4.1v13L-328.3,352.9L-328.3,352.9z"/>
</g>
<g>
	<path class="st0" d="M-270.2,368.1c1.4,0,2.6-0.2,3.6-0.7c1.1-0.5,2-1.1,2.7-1.9c0.7-0.8,1.3-1.9,1.7-3.1s0.6-2.6,0.6-4.1v-25.9
		h10.1v25.9c0,2.7-0.4,5.1-1.3,7.4c-0.9,2.2-2.1,4.2-3.7,5.8c-1.6,1.6-3.6,2.9-5.9,3.8s-4.9,1.4-7.8,1.4c-2.9,0-5.5-0.5-7.9-1.4
		c-2.3-0.9-4.3-2.2-5.9-3.8c-1.6-1.6-2.9-3.5-3.7-5.8c-0.9-2.2-1.3-4.7-1.3-7.4v-25.9h10.1v25.9c0,1.5,0.2,2.9,0.6,4.1
		c0.4,1.2,1,2.2,1.7,3.1s1.6,1.5,2.7,2C-272.8,367.8-271.6,368.1-270.2,368.1"/>
</g>
<path class="st0" d="M-233.7,344.6c-1.9,0-3.5-0.6-4.8-1.9c-1.3-1.3-1.9-2.9-1.9-4.8c0-1.9,0.6-3.5,1.9-4.8c1.3-1.3,2.9-1.9,4.8-1.9
	c1.9,0,3.5,0.6,4.8,1.9c1.3,1.3,2,2.9,2,4.8c0,1.9-0.7,3.5-2,4.8C-230.2,344-231.8,344.6-233.7,344.6z M-233.7,332.4
	c-3.2,0-5.4,2.3-5.4,5.5c0,3.2,2.3,5.4,5.4,5.4s5.5-2.2,5.5-5.4C-228.3,334.7-230.6,332.4-233.7,332.4z M-236.2,341.6v-7.7h2.7
	c1.5,0,2.5,1,2.5,2.4c0,1-0.4,1.8-1.3,2.2l1.8,3.1h-1.7l-1.7-2.8h-1v2.8H-236.2z M-234.8,337.6h1.3c0.6,0,1.1-0.5,1.1-1.2
	c0-0.6-0.5-1.1-1.1-1.1h-1.3V337.6z"/>
</svg>